<svg width="959" height="337" viewBox="0 0 959 337" fill="none" xmlns="http://www.w3.org/2000/svg">
<path d="M167.042 224.531C167.042 229.378 166.096 233.929 164.204 238.185C162.431 242.441 159.949 246.165 156.757 249.357C153.683 252.43 150.018 254.913 145.762 256.804C141.507 258.577 136.955 259.464 132.108 259.464H34.756V335.715H0V70.6113H34.756V102.53C35.1107 98.0378 36.2928 93.9002 38.3025 90.1173C40.3122 86.2161 42.8539 82.8469 45.9276 80.0096C49.0012 77.0542 52.5478 74.7489 56.5672 73.0939C60.7048 71.4389 65.0788 70.6113 69.6893 70.6113H132.108C136.955 70.6113 141.507 71.5571 145.762 73.4486C150.018 75.2218 153.683 77.7044 156.757 80.8963C159.949 83.9699 162.431 87.6347 164.204 91.8905C166.096 96.1464 167.042 100.698 167.042 105.545V224.531ZM132.108 224.531V105.545H34.756V224.531H132.108Z" fill="#1F0047"/>
<path d="M225.205 177.007C225.205 172.16 226.091 167.668 227.865 163.53C229.756 159.275 232.239 155.551 235.312 152.359C238.504 149.167 242.228 146.684 246.484 144.911C250.74 143.02 255.232 142.074 259.961 142.074H350.043V105.545H236.022V70.6113H350.043C354.89 70.6113 359.441 71.5571 363.697 73.4486C367.953 75.2218 371.617 77.7044 374.691 80.8963C377.883 83.9699 380.365 87.6347 382.139 91.8905C384.03 96.1464 384.976 100.698 384.976 105.545V259.464H350.043V227.545C349.688 231.919 348.506 236.057 346.496 239.958C344.486 243.859 341.886 247.288 338.694 250.243C335.62 253.08 332.074 255.326 328.054 256.982C324.035 258.637 319.779 259.464 315.287 259.464H259.961C255.232 259.464 250.74 258.577 246.484 256.804C242.228 254.913 238.504 252.43 235.312 249.357C232.239 246.165 229.756 242.441 227.865 238.185C226.091 233.929 225.205 229.378 225.205 224.531V177.007ZM259.961 224.531H350.043V177.007H259.961V224.531Z" fill="#1F0047"/>
<path d="M456.084 335.715L495.628 242.441L421.505 70.6113H458.212L513.36 200.592L568.509 70.6113H605.216L490.84 335.715H456.084Z" fill="#1F0047"/>
<circle cx="790.223" cy="168.132" r="168.132" fill="#1F0047"/>
<path d="M831.121 222.599V181.265H752.695C748.104 181.265 743.794 180.429 739.763 178.755C735.733 176.97 732.206 174.627 729.183 171.727C726.273 168.715 723.921 165.201 722.13 161.184C720.451 157.168 719.611 152.873 719.611 148.299V110.312C719.611 105.738 720.451 101.443 722.13 97.4268C723.921 93.4106 726.273 89.9522 729.183 87.0516C732.206 84.0394 735.733 81.6966 739.763 80.0232C743.794 78.2382 748.104 77.3457 752.695 77.3457H857.319V110.312H752.695V148.299H831.121C835.711 148.299 839.966 149.191 843.884 150.976C847.915 152.65 851.441 154.993 854.464 158.005C857.487 160.905 859.838 164.364 861.517 168.38C863.309 172.396 864.204 176.691 864.204 181.265V222.599C864.204 227.173 863.309 231.468 861.517 235.484C859.838 239.501 857.487 243.015 854.464 246.027C851.441 248.928 847.915 251.27 843.884 253.055C839.966 254.729 835.711 255.565 831.121 255.565H719.611V222.599H831.121Z" fill="white"/>
</svg>
