<svg width="49" height="48" viewBox="0 0 49 48" fill="none" xmlns="http://www.w3.org/2000/svg">
<path d="M42.3418 28V38C42.3418 39.0609 41.9204 40.0783 41.1702 40.8284C40.4201 41.5786 39.4027 42 38.3418 42H10.3418C9.28093 42 8.26351 41.5786 7.51337 40.8284C6.76322 40.0783 6.3418 39.0609 6.3418 38V10C6.3418 8.93913 6.76322 7.92172 7.51337 7.17157C8.26351 6.42143 9.28093 6 10.3418 6H20.3418V10H10.3418V38H38.3418V28H42.3418Z" fill="#D9D9D9"/>
<path d="M42.3418 14H34.3418V6H30.3418V14H22.3418V18H30.3418V26H34.3418V18H42.3418V14Z" fill="#D9D9D9"/>
</svg>
