<svg width="41" height="40" viewBox="0 0 41 40" fill="none" xmlns="http://www.w3.org/2000/svg">
<path d="M36.8418 -0.00195312C38.7738 -0.00195312 40.3418 1.56605 40.3418 3.49805V9.58405C40.3416 10.5888 40.0661 11.5743 39.5454 12.4335C39.0246 13.2928 38.2784 13.9929 37.3878 14.458L24.8238 21.018C26.8365 22.0275 28.4497 23.6866 29.4021 25.7269C30.3545 27.7672 30.5905 30.0692 30.0719 32.2603C29.5532 34.4514 28.3103 36.4034 26.5442 37.8002C24.7782 39.197 22.5925 39.9569 20.3408 39.9569C18.0891 39.9569 15.9034 39.197 14.1373 37.8002C12.3713 36.4034 11.1284 34.4514 10.6097 32.2603C10.091 30.0692 10.327 27.7672 11.2795 25.7269C12.2319 23.6866 13.8451 22.0275 15.8578 21.018L3.2978 14.46C2.40651 13.9951 1.65972 13.2947 1.13857 12.435C0.617421 11.5754 0.341847 10.5893 0.341797 9.58405V3.49805C0.341797 1.56605 1.9098 -0.00195312 3.8418 -0.00195312H36.8418ZM20.3418 22.96C18.4853 22.96 16.7048 23.6975 15.392 25.0103C14.0793 26.3231 13.3418 28.1035 13.3418 29.96C13.3418 31.8166 14.0793 33.597 15.392 34.9098C16.7048 36.2225 18.4853 36.96 20.3418 36.96C22.1983 36.96 23.9788 36.2225 25.2915 34.9098C26.6043 33.597 27.3418 31.8166 27.3418 29.96C27.3418 28.1035 26.6043 26.3231 25.2915 25.0103C23.9788 23.6975 22.1983 22.96 20.3418 22.96ZM27.3418 2.99605H13.3418V16.32L20.1098 19.856C20.1814 19.8935 20.261 19.9131 20.3418 19.9131C20.4226 19.9131 20.5022 19.8935 20.5738 19.856L27.3418 16.318V2.99605ZM10.3418 2.99605L3.8418 2.99805C3.70919 2.99805 3.58201 3.05073 3.48824 3.14449C3.39448 3.23826 3.3418 3.36544 3.3418 3.49805V9.58405C3.3418 10.514 3.8598 11.368 4.6838 11.8L10.3418 14.752V2.99605ZM36.8418 2.99805L30.3418 2.99605V14.752L35.9998 11.8C36.4046 11.5885 36.7436 11.2701 36.9802 10.8794C37.2168 10.4888 37.3419 10.0408 37.3418 9.58405V3.49805C37.3418 3.36544 37.2891 3.23826 37.1954 3.14449C37.1016 3.05073 36.9744 2.99805 36.8418 2.99805Z" fill="#D9D9D9"/>
</svg>
