<svg width="49" height="48" viewBox="0 0 49 48" fill="none" xmlns="http://www.w3.org/2000/svg">
<path fill-rule="evenodd" clip-rule="evenodd" d="M24.2278 2.5C19.6098 2.5 15.9918 2.5 13.1678 2.88C10.2798 3.268 7.9998 4.08 6.2098 5.868C4.4198 7.658 3.6098 9.938 3.2218 12.828C2.8418 15.65 2.8418 19.268 2.8418 23.886V24.114C2.8418 28.732 2.8418 32.35 3.2218 35.174C3.6098 38.062 4.4218 40.342 6.2098 42.132C7.9998 43.922 10.2798 44.732 13.1698 45.12C15.9918 45.5 19.6098 45.5 24.2278 45.5H24.4558C29.0738 45.5 32.6918 45.5 35.5158 45.12C38.4038 44.732 40.6838 43.92 42.4738 42.132C44.2638 40.342 45.0738 38.062 45.4618 35.172C45.8418 32.35 45.8418 28.732 45.8418 24.114V23.886C45.8418 19.268 45.8418 15.65 45.4618 12.826C45.0738 9.938 44.2618 7.658 42.4738 5.868C40.6838 4.078 38.4038 3.268 35.5138 2.88C32.6918 2.5 29.0738 2.5 24.4558 2.5H24.2278ZM22.8418 5.5C18.8538 5.504 15.8878 5.54 13.5698 5.852C11.0118 6.196 9.4698 6.852 8.3298 7.99C7.1918 9.13 6.5378 10.67 6.1938 13.228C5.8838 15.546 5.8458 18.512 5.8418 22.5H14.1698C13.4523 21.6024 12.9366 20.5608 12.6578 19.446C11.5798 15.14 15.4818 11.238 19.7878 12.316C20.9026 12.5948 21.9442 13.1105 22.8418 13.828V5.5ZM5.8418 25.5C5.8458 29.488 5.8818 32.454 6.1938 34.772C6.5378 37.33 7.1938 38.872 8.3318 40.012C9.4718 41.15 11.0118 41.804 13.5698 42.148C15.8878 42.458 18.8538 42.496 22.8418 42.5V28.248C22.0526 29.8265 20.8394 31.1541 19.338 32.0817C17.8367 33.0094 16.1066 33.5005 14.3418 33.5C13.944 33.5 13.5624 33.342 13.2811 33.0607C12.9998 32.7794 12.8418 32.3978 12.8418 32C12.8418 31.6022 12.9998 31.2206 13.2811 30.9393C13.5624 30.658 13.944 30.5 14.3418 30.5C15.8051 30.5003 17.2258 30.0069 18.3738 29.0995C19.5218 28.1921 20.3301 26.9238 20.6678 25.5H5.8418ZM25.8418 42.5C29.8298 42.496 32.7958 42.46 35.1138 42.148C37.6718 41.804 39.2138 41.148 40.3538 40.01C41.4918 38.87 42.1458 37.33 42.4898 34.772C42.7998 32.454 42.8378 29.488 42.8418 25.5H28.0158C28.3535 26.9238 29.1618 28.1921 30.3098 29.0995C31.4578 30.0069 32.8785 30.5003 34.3418 30.5C34.7396 30.5 35.1212 30.658 35.4025 30.9393C35.6838 31.2206 35.8418 31.6022 35.8418 32C35.8418 32.3978 35.6838 32.7794 35.4025 33.0607C35.1212 33.342 34.7396 33.5 34.3418 33.5C32.577 33.5005 30.8469 33.0094 29.3456 32.0817C27.8442 31.1541 26.6309 29.8265 25.8418 28.248V42.5ZM42.8418 22.5H34.5138C35.232 21.6026 35.7484 20.5609 36.0278 19.446C37.1038 15.14 33.2018 11.238 28.8978 12.316C27.7823 12.5945 26.74 13.1103 25.8418 13.828V5.5C29.8298 5.504 32.7958 5.54 35.1138 5.852C37.6718 6.196 39.2138 6.852 40.3538 7.99C41.4918 9.13 42.1458 10.67 42.4898 13.228C42.7998 15.546 42.8378 18.512 42.8418 22.5ZM25.8418 22.5V20.06C25.8452 18.9485 26.2189 17.8698 26.9038 16.9944C27.5887 16.119 28.5458 15.4968 29.6238 15.226C30.1062 15.1055 30.6116 15.112 31.0907 15.2448C31.5699 15.3776 32.0065 15.6321 32.3581 15.9837C32.7097 16.3353 32.9642 16.7719 33.097 17.2511C33.2298 17.7302 33.2363 18.2356 33.1158 18.718C32.8452 19.7954 32.2236 20.7519 31.349 21.4368C30.4744 22.1216 29.3966 22.4957 28.2858 22.5H25.8418ZM22.8418 20.054C22.837 18.9435 22.4628 17.8662 21.778 16.992C21.0932 16.1179 20.1368 15.4965 19.0598 15.226C18.5774 15.1055 18.072 15.112 17.5929 15.2448C17.1137 15.3776 16.6771 15.6321 16.3255 15.9837C15.9739 16.3353 15.7194 16.7719 15.5866 17.2511C15.4538 17.7302 15.4473 18.2356 15.5678 18.718C15.8384 19.7954 16.46 20.7519 17.3346 21.4368C18.2092 22.1216 19.287 22.4957 20.3978 22.5H22.8418V20.054Z" fill="#D9D9D9"/>
</svg>
