<svg width="83" height="15" viewBox="0 0 83 15" fill="none" xmlns="http://www.w3.org/2000/svg">
<path d="M5.35499 0.345703H8.5403L8.43581 7.71653C8.43581 11.4281 7.0792 13.4583 4.16632 14.089C3.13814 14.3316 2.07823 14.5052 1.02206 14.6115L0.413733 14.675L0.385742 11.2321L0.930624 11.2097C2.00173 11.1687 3.07096 10.9821 4.09541 10.6574C4.66269 10.4372 5.34752 9.89792 5.27848 7.74079V7.72773L5.35499 3.09623V0.345703Z" fill="#282828"/>
<path d="M43.5728 0.912225C43.8845 1.30596 44.0356 1.7818 44.0151 2.26883V13.814H40.9249V6.59989L36.7861 12.978C36.6069 13.2616 36.3513 13.5173 36.0546 13.6908C35.7654 13.8644 35.4593 13.9521 35.1029 13.9465C34.4125 13.9465 33.7631 13.5658 33.416 12.95L29.2231 6.52525V13.814H26.1273V2.13448C26.0993 1.69223 26.2505 1.23505 26.5565 0.869306C26.8868 0.522224 27.329 0.343085 27.7732 0.358014C28.3684 0.330023 28.9749 0.64165 29.3332 1.18093L35.1253 9.69937L40.7981 1.19959C41.1227 0.660311 41.7311 0.322559 42.3749 0.358014C42.7928 0.341219 43.2594 0.539019 43.5728 0.912225Z" fill="#282828"/>
<path d="M61.835 1.4501C61.4002 0.532008 60.2862 0.134543 59.3606 0.558133C58.9725 0.750334 58.6553 1.06196 58.4687 1.4501L51.0811 13.8312H54.8113L56.7183 10.4257L63.5312 10.3977L65.4794 13.8126H69.0677L61.835 1.4501ZM61.6391 7.23666H58.5247L60.066 4.65781L61.6391 7.23666Z" fill="#282828"/>
<path d="M24.0933 9.70819C24.181 10.8689 23.6771 12.0221 22.7535 12.7536L22.69 12.7946C21.6058 13.4253 20.4004 13.7556 19.1651 13.7556C18.9915 13.7556 16.2018 13.737 16.2018 13.737C15.8417 13.737 15.4703 13.7239 15.1009 13.709C14.7071 13.6959 14.3003 13.6455 13.9066 13.5578C13.5129 13.4757 13.1303 13.3488 12.759 13.179C12.3783 12.9999 12.0406 12.7573 11.7569 12.4475L11.7513 12.4419C11.449 12.1116 11.212 11.7291 11.0553 11.3074C10.8631 10.7849 10.7773 10.2456 10.7941 9.697V0.359375H13.8431V9.58504C13.8431 9.83322 13.8431 10.5871 15.9424 10.5871H18.9878C21.0404 10.5871 21.0404 9.83322 21.0404 9.58504V0.359375H24.0951L24.0933 9.70819Z" fill="#282828"/>
<path d="M49.3633 0.484375H46.1631V13.8676H49.3633V0.484375Z" fill="#282828"/>
<path d="M81.7463 3.51318C81.6324 3.32658 81.5074 3.15117 81.3712 2.98323C81.1883 2.72198 80.9793 2.48126 80.7461 2.26667L80.5259 2.04648L80.0276 1.62476L79.5257 1.27767L79.2476 1.12279C78.2829 0.587241 77.1987 0.309202 76.0941 0.312934C74.9912 0.299872 73.9033 0.581643 72.9405 1.12279L72.6624 1.27767L72.1325 1.62476L71.6305 2.04648L71.4103 2.26667C71.1771 2.485 70.9681 2.72385 70.7852 2.98323C70.2011 3.75576 69.8055 4.65519 69.6227 5.60687C69.5219 6.04912 69.4715 6.4951 69.4678 6.94668C69.4771 7.61472 69.5816 8.27716 69.7794 8.91348C69.8746 9.22324 69.9903 9.5218 70.1265 9.81477L70.4381 10.3783L70.6247 10.6265C70.7311 10.815 70.858 10.996 70.9998 11.1564C71.2704 11.4867 71.5745 11.7872 71.9011 12.0577L72.403 12.4328C72.5673 12.556 72.7464 12.6605 72.933 12.7444C73.894 13.2837 74.98 13.5636 76.0829 13.558C77.1838 13.5618 78.2642 13.2931 79.2365 12.7799L79.5201 12.5914C79.7907 12.4347 80.0538 12.2537 80.2982 12.0615C80.4531 11.9066 80.6378 11.7834 80.7647 11.6398L81.1865 11.1732L81.5615 10.6713L81.75 10.3932C82.3639 9.35013 82.6905 8.15773 82.6905 6.94481C82.7054 5.73749 82.3807 4.5451 81.7537 3.51505H81.7407V3.51318H81.7463ZM80.9793 5.3195L78.5423 7.69309L79.1058 11.0669L76.0754 9.47702L73.0841 11.0669L73.6458 7.69309L71.2144 5.3195L74.5882 4.82127L76.1164 1.75911L77.6149 4.82127L80.9793 5.3195Z" fill="#F8991D"/>
</svg>
