<svg width="74" height="73" viewBox="0 0 74 73" fill="none" xmlns="http://www.w3.org/2000/svg">
<g clip-path="url(#clip0_3838_2686)">
<path fill-rule="evenodd" clip-rule="evenodd" d="M58.1676 28.0064C58.1676 27.4363 57.661 26.9297 57.0273 26.9297H55.4418C54.8081 26.9297 54.3008 27.4363 54.3008 28.0064L54.365 44.9972C54.3638 45.1389 54.3907 45.2795 54.4444 45.4107C54.4981 45.5419 54.5773 45.6611 54.6776 45.7614C54.7778 45.8616 54.897 45.9409 55.0282 45.9946C55.1594 46.0482 55.3 46.0752 55.4418 46.0739H57.0273C57.661 46.0739 58.1676 45.5673 58.1676 44.9972V28.0064Z" fill="#005695"/>
<path fill-rule="evenodd" clip-rule="evenodd" d="M60.1953 28.5142V29.2727C60.1953 29.6523 60.4494 29.9063 60.829 29.9063H71.9863C72.2359 29.8998 72.4736 29.7978 72.6502 29.6212C72.8268 29.4446 72.9288 29.207 72.9353 28.9573V27.6265C72.9353 27.1192 72.4914 26.6126 71.9863 26.6775C71.9863 26.6775 61.2093 27.7543 60.829 27.8178C60.4486 27.8178 60.1953 28.1346 60.1953 28.5149V28.5142Z" fill="#005695"/>
<path fill-rule="evenodd" clip-rule="evenodd" d="M51.1297 46.0747C48.3404 46.0747 46.6285 43.9833 46.6285 41.6378V34.8539H45.8044C45.424 34.8539 45.043 34.4735 45.043 34.0932V32.9515C45.0464 32.7509 45.1278 32.5595 45.2699 32.4179C45.412 32.2763 45.6037 32.1957 45.8044 32.193H46.6285V28.0072C46.6273 27.8654 46.6543 27.7247 46.708 27.5934C46.7617 27.4621 46.841 27.3428 46.9413 27.2425C47.0416 27.1422 47.1609 27.0629 47.2922 27.0092C47.4235 26.9555 47.5642 26.9285 47.706 26.9297H49.2908C49.861 26.9297 50.3048 27.4364 50.3048 28.0072V32.193H52.7773C52.8779 32.1891 52.9783 32.2061 53.072 32.2428C53.1658 32.2796 53.2509 32.3353 53.3221 32.4065C53.3932 32.4778 53.4489 32.563 53.4856 32.6567C53.5222 32.7505 53.5391 32.8509 53.5351 32.9515V34.091C53.5324 34.2919 53.4514 34.4839 53.3093 34.626C53.1673 34.7681 52.9753 34.849 52.7744 34.8517H50.3048V41.1297C50.3048 42.3335 51.0662 43.2219 52.397 43.2219H52.651C52.7602 43.2183 52.869 43.2372 52.9706 43.2774C53.0722 43.3175 53.1645 43.3781 53.2417 43.4554C53.319 43.5326 53.3795 43.6249 53.4197 43.7265C53.4599 43.8281 53.4788 43.9368 53.4752 44.046V45.2505C53.4714 45.468 53.3834 45.6754 53.2297 45.8292C53.0759 45.9829 52.8684 46.071 52.651 46.0747H51.1297Z" fill="#005695"/>
<path fill-rule="evenodd" clip-rule="evenodd" d="M32.1117 38.9086C32.1117 35.2959 29.9568 31.6816 25.0753 31.6816C20.5741 31.6816 18.1016 35.2309 18.1016 38.9086C18.1016 42.839 20.7639 46.3262 25.138 46.3262C28.1179 46.3262 31.0342 44.8048 31.6044 42.206C31.6679 41.8892 31.4146 41.3819 30.97 41.3819H28.815C28.6354 41.38 28.4586 41.4259 28.3026 41.515C28.1466 41.604 28.0171 41.7329 27.9274 41.8885C27.293 42.7776 26.406 43.2222 25.1388 43.2222C23.2371 43.2222 21.9691 41.7622 21.8421 40.1161H30.9058C31.7307 40.1161 32.111 39.6722 32.111 38.9108L32.1117 38.9086ZM21.9049 37.3902C22.0319 35.8054 23.4262 34.6009 25.0753 34.6009C26.7871 34.6009 28.1814 35.8054 28.3719 37.3902H21.9049Z" fill="#005695"/>
<path fill-rule="evenodd" clip-rule="evenodd" d="M73.3188 38.9086C73.3188 35.2959 71.1638 31.6816 66.2816 31.6816C61.7804 31.6816 59.3086 35.2309 59.3086 38.9086C59.3086 42.839 61.9716 46.3262 66.3458 46.3262C69.3249 46.3262 72.2405 44.8048 72.8114 42.206C72.8756 41.8892 72.6209 41.3819 72.1778 41.3819H70.0228C69.8431 41.38 69.6661 41.4259 69.51 41.5149C69.3539 41.6039 69.2242 41.7329 69.1344 41.8885C68.5008 42.7776 67.6131 43.2222 66.2816 43.2222C64.4434 43.2222 63.1754 41.7622 63.0484 40.1161H72.1143C72.9384 40.1161 73.3188 39.6722 73.3188 38.9108V38.9086ZM63.1126 37.3902C63.2389 35.8054 64.6318 34.6016 66.2816 34.6016C67.9934 34.6016 69.3884 35.8061 69.5155 37.391L63.1126 37.3902Z" fill="#005695"/>
<path fill-rule="evenodd" clip-rule="evenodd" d="M43.5847 27.1196H14.2956C14.1375 27.1196 13.9809 27.1508 13.8348 27.2113C13.6887 27.2719 13.556 27.3606 13.4442 27.4725C13.3324 27.5843 13.2437 27.7171 13.1833 27.8632C13.1228 28.0094 13.0918 28.166 13.0919 28.3241L13.1547 39.8625C13.1547 39.8625 6.87666 28.4511 6.5613 27.8803C6.36743 27.5498 6.08994 27.2762 5.75675 27.0871C5.42356 26.8979 5.04642 26.7999 4.6633 26.8028H2.2543C2.09578 26.8023 1.93874 26.8331 1.79217 26.8935C1.64561 26.9539 1.51241 27.0426 1.40022 27.1546C1.28804 27.2666 1.19907 27.3996 1.13844 27.5461C1.0778 27.6925 1.04668 27.8495 1.04688 28.008V44.871C1.04688 45.5682 1.55788 46.0755 2.25138 46.0755H3.7727C4.46985 46.0755 4.9772 45.5682 4.9772 44.871L4.91588 33.0801C4.91588 33.0801 11.2552 44.5542 11.5727 44.998C11.8896 45.6317 12.5217 46.0755 13.4109 46.0755H15.6294C16.3265 46.0755 16.8339 45.5682 16.8339 44.871V29.9739H43.5847C43.8021 29.97 44.0094 29.8819 44.1631 29.7282C44.3168 29.5745 44.4049 29.3671 44.4089 29.1497V27.9445C44.4053 27.7271 44.3175 27.5196 44.1638 27.3657C44.0102 27.2118 43.8028 27.1236 43.5854 27.1196H43.5847Z" fill="#005695"/>
<path fill-rule="evenodd" clip-rule="evenodd" d="M38.8309 34.4744C40.099 34.4744 41.0501 34.9182 41.4305 35.7417C41.5575 36.1227 41.8743 36.1862 42.3182 36.1862H44.0935C44.3476 36.1862 44.7272 35.9322 44.7272 35.5526C44.7272 33.5239 42.2546 31.6836 38.8317 31.6836C35.2853 31.6829 32.9362 33.3962 32.9362 36.0629C32.9362 38.155 34.5845 39.3603 36.5497 39.9319C37.4987 40.1224 39.085 40.502 39.8456 40.756C40.6063 40.9466 41.367 41.1999 41.367 41.897C41.367 43.038 40.226 43.357 38.8945 43.357C37.69 43.357 36.4855 42.846 36.1686 41.9627C35.9788 41.4517 35.5978 41.3926 35.0912 41.3926H33.3143C32.9975 41.3926 32.6172 41.7087 32.6172 42.089V42.3431C32.6172 44.3082 35.2802 46.3369 38.9565 46.3369C41.4925 46.3369 45.106 45.2594 45.106 41.835C45.106 39.8063 43.7745 38.4127 41.556 37.8426C40.7311 37.6521 38.7032 37.0812 38.2594 37.017C37.4345 36.7637 36.6745 36.5104 36.6745 35.8767C36.6745 34.7992 37.6235 34.4817 38.8295 34.4817L38.8309 34.4744Z" fill="#005695"/>
</g>
<defs>
<clipPath id="clip0_3838_2686">
<rect width="73" height="73" fill="white" transform="translate(0.683594)"/>
</clipPath>
</defs>
</svg>
