<svg width="144" height="144" viewBox="0 0 144 144" fill="none" xmlns="http://www.w3.org/2000/svg">
<g clip-path="url(#clip0_4313_2017)">
<path d="M53.8731 0.271484H0.00976562V54.1348H53.8731V0.271484ZM44.8959 45.1576H8.98699V9.24871H44.8959V45.1576Z" fill="black"/>
<path d="M17.9642 18.2285H35.9187V36.183H17.9642V18.2285ZM0.00976562 143.91H53.8731V90.0463H0.00976562V143.91ZM8.98699 99.0236H44.8959V134.932H8.98699V99.0236Z" fill="black"/>
<path d="M17.9648 107.998H35.9193V125.953H17.9648V107.998ZM89.7827 0.271484V54.1349H143.646V0.271484H89.7827ZM134.669 45.1576H98.7599V9.24871H134.669V45.1576Z" fill="black"/>
<path d="M107.737 18.2259H125.691V36.1804H107.737V18.2259ZM17.9642 63.1121H0.00976562V81.0665H26.9415V72.0893H17.9642V63.1121ZM62.8504 81.0665H80.8048V99.021H62.8504V81.0665ZM26.9415 63.1121H44.8959V72.0893H26.9415V63.1121ZM80.8048 107.998H62.8504V116.975H71.8276V125.953H80.8048V116.975V107.998ZM53.8731 63.1121V72.0893H44.8959V81.0665H62.8504V63.1121H53.8731ZM71.8276 36.1804H80.8048V54.1349H71.8276V36.1804ZM80.8048 72.0893V81.0665H98.7593V63.1121H71.8276V72.0893H80.8048ZM62.8504 54.1349H71.8276V63.1121H62.8504V54.1349ZM80.8048 125.953H98.7593V143.907H80.8048V125.953ZM62.8504 125.953H71.8276V143.907H62.8504V125.953ZM80.8048 99.021H89.782V107.998H80.8048V99.021ZM80.8048 27.2032V9.24871H71.8276V0.271484H62.8504V36.1804H71.8276V27.2032H80.8048ZM107.737 125.953H116.714V143.907H107.737V125.953ZM107.737 107.998H125.691V116.975H107.737V107.998ZM98.7593 116.975H107.737V125.953H98.7593V116.975ZM89.782 107.998H98.7593V116.975H89.782V107.998ZM125.691 90.0438V99.021H134.668V107.998H143.645V90.0438H134.668H125.691ZM134.668 116.975H125.691V143.907H143.645V125.953H134.668V116.975ZM89.782 90.0438V99.021H116.714V81.0665H98.7593V90.0438H89.782ZM107.737 63.1121V72.0893H125.691V81.0665H143.645V63.1121H125.691H107.737Z" fill="black"/>
</g>
<defs>
<clipPath id="clip0_4313_2017">
<rect width="143.636" height="143.636" fill="white" transform="translate(0.00976562 0.271484)"/>
</clipPath>
</defs>
</svg>
